<svg xmlns="http://www.w3.org/2000/svg" xmlns:xlink="http://www.w3.org/1999/xlink" width="500" zoomAndPan="magnify" viewBox="0 0 375 374.999991" height="500" preserveAspectRatio="xMidYMid meet" version="1.2"><defs><clipPath id="5a8de16950"><path d="M 41.046875 109 L 333.515625 109 L 333.515625 307.300781 L 41.046875 307.300781 Z M 41.046875 109 "/></clipPath><clipPath id="f8d506122a"><path d="M 77 67.320312 L 162 67.320312 L 162 189 L 77 189 Z M 77 67.320312 "/></clipPath></defs><g id="d6ac92cd4e"><path style=" stroke:none;fill-rule:nonzero;fill:#38b6ff;fill-opacity:1;" d="M 232.761719 159.949219 L 233.363281 165.765625 C 235.285156 165.578125 237.28125 165.480469 239.285156 165.480469 C 240.941406 165.480469 242.652344 165.546875 244.359375 165.675781 L 244.824219 159.847656 C 242.960938 159.707031 241.097656 159.636719 239.285156 159.636719 C 237.082031 159.636719 234.886719 159.742188 232.761719 159.949219 "/><path style=" stroke:none;fill-rule:nonzero;fill:#38b6ff;fill-opacity:1;" d="M 209.738281 167.1875 L 212.765625 172.234375 C 215.898438 170.4375 219.238281 168.984375 222.683594 167.910156 L 220.859375 162.339844 C 216.996094 163.546875 213.253906 165.175781 209.738281 167.1875 "/><path style=" stroke:none;fill-rule:nonzero;fill:#38b6ff;fill-opacity:1;" d="M 129.707031 247.011719 C 133.65625 246.226562 137.542969 245.125 141.257812 243.738281 L 139.117188 238.277344 C 135.707031 239.550781 132.140625 240.5625 128.511719 241.28125 L 129.707031 247.011719 "/><path style=" stroke:none;fill-rule:nonzero;fill:#38b6ff;fill-opacity:1;" d="M 191.769531 182.820312 L 196.476562 186.429688 C 198.828125 183.511719 201.351562 180.855469 203.972656 178.546875 L 199.960938 174.207031 C 197.085938 176.738281 194.332031 179.636719 191.769531 182.820312 "/><path style=" stroke:none;fill-rule:nonzero;fill:#38b6ff;fill-opacity:1;" d="M 106.386719 242.367188 L 105.851562 248.1875 C 108.527344 248.421875 111.203125 248.539062 113.8125 248.539062 C 115.144531 248.539062 116.488281 248.511719 117.800781 248.449219 L 117.519531 242.609375 C 116.296875 242.664062 115.050781 242.691406 113.8125 242.691406 C 111.378906 242.691406 108.882812 242.582031 106.386719 242.367188 "/><path style=" stroke:none;fill-rule:nonzero;fill:#38b6ff;fill-opacity:1;" d="M 158.132812 227.414062 C 155.238281 229.730469 152.1875 231.8125 149.0625 233.605469 L 152.09375 238.644531 C 155.484375 236.703125 158.792969 234.445312 161.929688 231.9375 L 158.132812 227.414062 "/><path style=" stroke:none;fill-rule:nonzero;fill:#38b6ff;fill-opacity:1;" d="M 173.3125 211.511719 C 171.058594 214.53125 168.671875 217.375 166.222656 219.957031 L 170.617188 223.929688 C 173.226562 221.179688 175.761719 218.15625 178.152344 214.953125 L 173.3125 211.511719 "/><path style=" stroke:none;fill-rule:nonzero;fill:#38b6ff;fill-opacity:1;" d="M 82.621094 243.445312 C 86.4375 244.65625 90.292969 245.664062 94.082031 246.449219 L 95.320312 240.730469 C 91.738281 239.988281 88.089844 239.03125 84.472656 237.882812 L 82.621094 243.445312 "/><path style=" stroke:none;fill-rule:nonzero;fill:#38b6ff;fill-opacity:1;" d="M 276.605469 174.429688 C 279.933594 175.898438 283.34375 177.5625 286.742188 179.378906 L 289.617188 174.25 C 286.085938 172.363281 282.539062 170.632812 279.074219 169.101562 L 276.605469 174.429688 "/><path style=" stroke:none;fill-rule:nonzero;fill:#38b6ff;fill-opacity:1;" d="M 255.347656 167.316406 C 258.84375 168.082031 262.46875 169.097656 266.132812 170.335938 L 268.089844 164.808594 C 264.21875 163.5 260.371094 162.425781 256.65625 161.609375 L 255.347656 167.316406 "/><g clip-rule="nonzero" clip-path="url(#5a8de16950)"><path style=" stroke:none;fill-rule:nonzero;fill:#38b6ff;fill-opacity:1;" d="M 258.574219 224.097656 L 255.367188 224.300781 L 253.011719 226.476562 L 213.15625 263.238281 L 176.132812 151.828125 L 215.527344 118.21875 L 270.921875 120.289062 L 300.074219 180.296875 C 299.964844 180.226562 299.847656 180.15625 299.738281 180.085938 L 296.53125 185.023438 C 299.417969 186.8125 302.304688 188.714844 305.117188 190.675781 L 319.480469 220.238281 Z M 276.683594 111.449219 L 212.339844 109.042969 L 169.339844 145.726562 L 158.714844 143.855469 C 157.328125 146.558594 155.808594 149.359375 154.164062 152.242188 L 167.519531 154.597656 L 181.945312 198.003906 C 181.132812 199.476562 180.300781 200.925781 179.464844 202.324219 L 184.300781 205.097656 L 204.742188 266.605469 L 142.890625 263.78125 L 140.21875 263.65625 L 137.910156 265.007812 L 88.804688 293.738281 L 71.75 238.875 L 73.953125 233.972656 C 72.328125 233.277344 70.875 232.609375 69.613281 232.003906 L 51.726562 174.457031 L 85.1875 152.851562 C 83.617188 150.121094 82.164062 147.46875 80.824219 144.894531 L 41.046875 170.585938 L 83.542969 307.300781 L 142.476562 272.820312 L 212.640625 276.027344 L 259.144531 233.128906 L 333.515625 228.417969 L 276.683594 111.449219 "/></g><g clip-rule="nonzero" clip-path="url(#f8d506122a)"><path style=" stroke:none;fill-rule:nonzero;fill:#38b6ff;fill-opacity:1;" d="M 96.847656 106.289062 C 96.847656 93.777344 106.992188 83.636719 119.5 83.636719 C 132.011719 83.636719 142.152344 93.777344 142.152344 106.289062 C 142.152344 118.796875 132.011719 128.941406 119.5 128.941406 C 106.992188 128.941406 96.847656 118.796875 96.847656 106.289062 Z M 161.070312 108.886719 C 161.070312 85.929688 142.460938 67.320312 119.5 67.320312 C 96.542969 67.320312 77.929688 85.929688 77.929688 108.886719 C 77.929688 135.703125 119.5 188.125 119.5 188.125 C 119.5 188.125 161.070312 135.703125 161.070312 108.886719 "/></g><g style="fill:#ffffff;fill-opacity:1;"><g transform="translate(133.877331, 332.198913)"><path style="stroke:none" d="M 8.46875 0.3125 C 7.03125 0.3125 5.765625 -0.0234375 4.671875 -0.703125 C 3.578125 -1.390625 2.722656 -2.367188 2.109375 -3.640625 C 1.492188 -4.921875 1.1875 -6.453125 1.1875 -8.234375 C 1.1875 -9.992188 1.492188 -11.492188 2.109375 -12.734375 C 2.722656 -13.984375 3.578125 -14.9375 4.671875 -15.59375 C 5.765625 -16.257812 7.03125 -16.59375 8.46875 -16.59375 C 9.914062 -16.59375 11.179688 -16.257812 12.265625 -15.59375 C 13.359375 -14.925781 14.210938 -13.972656 14.828125 -12.734375 C 15.441406 -11.492188 15.75 -9.992188 15.75 -8.234375 C 15.75 -6.453125 15.441406 -4.921875 14.828125 -3.640625 C 14.210938 -2.367188 13.359375 -1.390625 12.265625 -0.703125 C 11.179688 -0.0234375 9.914062 0.3125 8.46875 0.3125 Z M 8.46875 -2.515625 C 9.28125 -2.515625 9.984375 -2.75 10.578125 -3.21875 C 11.171875 -3.6875 11.628906 -4.347656 11.953125 -5.203125 C 12.273438 -6.054688 12.4375 -7.066406 12.4375 -8.234375 C 12.4375 -9.390625 12.273438 -10.378906 11.953125 -11.203125 C 11.628906 -12.035156 11.171875 -12.675781 10.578125 -13.125 C 9.984375 -13.570312 9.28125 -13.796875 8.46875 -13.796875 C 7.664062 -13.796875 6.96875 -13.570312 6.375 -13.125 C 5.78125 -12.675781 5.320312 -12.035156 5 -11.203125 C 4.6875 -10.378906 4.53125 -9.390625 4.53125 -8.234375 C 4.53125 -7.066406 4.6875 -6.054688 5 -5.203125 C 5.320312 -4.347656 5.78125 -3.6875 6.375 -3.21875 C 6.96875 -2.75 7.664062 -2.515625 8.46875 -2.515625 Z M 8.46875 -2.515625 "/></g></g><g style="fill:#ffffff;fill-opacity:1;"><g transform="translate(150.814312, 332.198913)"><path style="stroke:none" d="M 1.734375 0 L 1.734375 -12.3125 L 4.375 -12.3125 L 4.625 -10.6875 L 4.6875 -10.6875 C 5.226562 -11.21875 5.820312 -11.671875 6.46875 -12.046875 C 7.113281 -12.429688 7.851562 -12.625 8.6875 -12.625 C 10.019531 -12.625 10.988281 -12.1875 11.59375 -11.3125 C 12.195312 -10.445312 12.5 -9.234375 12.5 -7.671875 L 12.5 0 L 9.265625 0 L 9.265625 -7.28125 C 9.265625 -8.238281 9.128906 -8.90625 8.859375 -9.28125 C 8.585938 -9.664062 8.144531 -9.859375 7.53125 -9.859375 C 7.03125 -9.859375 6.59375 -9.738281 6.21875 -9.5 C 5.84375 -9.269531 5.425781 -8.925781 4.96875 -8.46875 L 4.96875 0 Z M 1.734375 0 "/></g></g><g style="fill:#ffffff;fill-opacity:1;"><g transform="translate(164.913798, 332.198913)"><path style="stroke:none" d="M 2 0 L 2 -16.296875 L 7.390625 -16.296875 C 8.503906 -16.296875 9.503906 -16.171875 10.390625 -15.921875 C 11.273438 -15.671875 11.976562 -15.253906 12.5 -14.671875 C 13.019531 -14.085938 13.28125 -13.289062 13.28125 -12.28125 C 13.28125 -11.78125 13.1875 -11.289062 13 -10.8125 C 12.820312 -10.332031 12.570312 -9.910156 12.25 -9.546875 C 11.925781 -9.179688 11.53125 -8.910156 11.0625 -8.734375 L 11.0625 -8.640625 C 11.945312 -8.441406 12.675781 -8.019531 13.25 -7.375 C 13.820312 -6.738281 14.109375 -5.878906 14.109375 -4.796875 C 14.109375 -3.710938 13.832031 -2.8125 13.28125 -2.09375 C 12.726562 -1.382812 11.976562 -0.859375 11.03125 -0.515625 C 10.082031 -0.171875 9.007812 0 7.8125 0 Z M 5.265625 -9.65625 L 7.171875 -9.65625 C 8.203125 -9.65625 8.953125 -9.847656 9.421875 -10.234375 C 9.890625 -10.628906 10.125 -11.148438 10.125 -11.796875 C 10.125 -12.515625 9.878906 -13.023438 9.390625 -13.328125 C 8.910156 -13.640625 8.175781 -13.796875 7.1875 -13.796875 L 5.265625 -13.796875 Z M 5.265625 -2.515625 L 7.53125 -2.515625 C 8.644531 -2.515625 9.488281 -2.710938 10.0625 -3.109375 C 10.644531 -3.515625 10.9375 -4.144531 10.9375 -5 C 10.9375 -5.789062 10.644531 -6.363281 10.0625 -6.71875 C 9.488281 -7.082031 8.644531 -7.265625 7.53125 -7.265625 L 5.265625 -7.265625 Z M 5.265625 -2.515625 "/></g></g><g style="fill:#ffffff;fill-opacity:1;"><g transform="translate(179.893129, 332.198913)"><path style="stroke:none" d="M 6.890625 0.3125 C 5.859375 0.3125 4.890625 0.0546875 3.984375 -0.453125 C 3.085938 -0.972656 2.359375 -1.710938 1.796875 -2.671875 C 1.242188 -3.628906 0.96875 -4.789062 0.96875 -6.15625 C 0.96875 -7.519531 1.242188 -8.679688 1.796875 -9.640625 C 2.359375 -10.609375 3.085938 -11.347656 3.984375 -11.859375 C 4.890625 -12.367188 5.859375 -12.625 6.890625 -12.625 C 7.660156 -12.625 8.394531 -12.476562 9.09375 -12.1875 C 9.800781 -11.894531 10.4375 -11.472656 11 -10.921875 C 11.5625 -10.367188 12 -9.691406 12.3125 -8.890625 C 12.632812 -8.097656 12.796875 -7.1875 12.796875 -6.15625 C 12.796875 -4.789062 12.515625 -3.628906 11.953125 -2.671875 C 11.398438 -1.710938 10.671875 -0.972656 9.765625 -0.453125 C 8.867188 0.0546875 7.910156 0.3125 6.890625 0.3125 Z M 6.890625 -2.328125 C 7.441406 -2.328125 7.910156 -2.484375 8.296875 -2.796875 C 8.691406 -3.117188 8.988281 -3.566406 9.1875 -4.140625 C 9.382812 -4.710938 9.484375 -5.382812 9.484375 -6.15625 C 9.484375 -6.9375 9.382812 -7.613281 9.1875 -8.1875 C 8.988281 -8.757812 8.691406 -9.203125 8.296875 -9.515625 C 7.910156 -9.828125 7.441406 -9.984375 6.890625 -9.984375 C 6.328125 -9.984375 5.851562 -9.828125 5.46875 -9.515625 C 5.082031 -9.203125 4.789062 -8.757812 4.59375 -8.1875 C 4.394531 -7.613281 4.296875 -6.9375 4.296875 -6.15625 C 4.296875 -5.382812 4.394531 -4.710938 4.59375 -4.140625 C 4.789062 -3.566406 5.082031 -3.117188 5.46875 -2.796875 C 5.851562 -2.484375 6.328125 -2.328125 6.890625 -2.328125 Z M 6.890625 -2.328125 "/></g></g><g style="fill:#ffffff;fill-opacity:1;"><g transform="translate(193.222726, 332.198913)"><path style="stroke:none" d="M 4.75 0.3125 C 4.03125 0.3125 3.394531 0.15625 2.84375 -0.15625 C 2.300781 -0.476562 1.878906 -0.914062 1.578125 -1.46875 C 1.273438 -2.03125 1.125 -2.660156 1.125 -3.359375 C 1.125 -4.671875 1.6875 -5.6875 2.8125 -6.40625 C 3.945312 -7.132812 5.742188 -7.628906 8.203125 -7.890625 C 8.191406 -8.304688 8.117188 -8.671875 7.984375 -8.984375 C 7.847656 -9.296875 7.628906 -9.546875 7.328125 -9.734375 C 7.035156 -9.929688 6.628906 -10.03125 6.109375 -10.03125 C 5.546875 -10.03125 4.984375 -9.921875 4.421875 -9.703125 C 3.867188 -9.484375 3.304688 -9.195312 2.734375 -8.84375 L 1.578125 -11 C 2.066406 -11.3125 2.582031 -11.582031 3.125 -11.8125 C 3.664062 -12.050781 4.234375 -12.242188 4.828125 -12.390625 C 5.429688 -12.546875 6.054688 -12.625 6.703125 -12.625 C 7.742188 -12.625 8.617188 -12.414062 9.328125 -12 C 10.035156 -11.59375 10.5625 -10.984375 10.90625 -10.171875 C 11.257812 -9.367188 11.4375 -8.375 11.4375 -7.1875 L 11.4375 0 L 8.796875 0 L 8.578125 -1.3125 L 8.46875 -1.3125 C 7.9375 -0.84375 7.363281 -0.453125 6.75 -0.140625 C 6.132812 0.160156 5.46875 0.3125 4.75 0.3125 Z M 5.828125 -2.21875 C 6.285156 -2.21875 6.703125 -2.320312 7.078125 -2.53125 C 7.453125 -2.75 7.828125 -3.050781 8.203125 -3.4375 L 8.203125 -5.890625 C 7.203125 -5.773438 6.410156 -5.609375 5.828125 -5.390625 C 5.242188 -5.171875 4.828125 -4.910156 4.578125 -4.609375 C 4.328125 -4.304688 4.203125 -3.972656 4.203125 -3.609375 C 4.203125 -3.117188 4.351562 -2.765625 4.65625 -2.546875 C 4.957031 -2.328125 5.347656 -2.21875 5.828125 -2.21875 Z M 5.828125 -2.21875 "/></g></g><g style="fill:#ffffff;fill-opacity:1;"><g transform="translate(206.222412, 332.198913)"><path style="stroke:none" d="M 1.734375 0 L 1.734375 -12.3125 L 4.375 -12.3125 L 4.625 -10.140625 L 4.6875 -10.140625 C 5.144531 -10.953125 5.679688 -11.566406 6.296875 -11.984375 C 6.910156 -12.410156 7.539062 -12.625 8.1875 -12.625 C 8.539062 -12.625 8.820312 -12.597656 9.03125 -12.546875 C 9.238281 -12.492188 9.429688 -12.429688 9.609375 -12.359375 L 9.09375 -9.5625 C 8.851562 -9.625 8.640625 -9.671875 8.453125 -9.703125 C 8.273438 -9.742188 8.046875 -9.765625 7.765625 -9.765625 C 7.296875 -9.765625 6.800781 -9.582031 6.28125 -9.21875 C 5.757812 -8.851562 5.320312 -8.226562 4.96875 -7.34375 L 4.96875 0 Z M 1.734375 0 "/></g></g><g style="fill:#ffffff;fill-opacity:1;"><g transform="translate(215.460735, 332.198913)"><path style="stroke:none" d="M 6.078125 0.3125 C 5.046875 0.3125 4.148438 0.0546875 3.390625 -0.453125 C 2.640625 -0.972656 2.054688 -1.71875 1.640625 -2.6875 C 1.234375 -3.65625 1.03125 -4.8125 1.03125 -6.15625 C 1.03125 -7.488281 1.273438 -8.632812 1.765625 -9.59375 C 2.265625 -10.5625 2.910156 -11.304688 3.703125 -11.828125 C 4.492188 -12.359375 5.328125 -12.625 6.203125 -12.625 C 6.890625 -12.625 7.472656 -12.503906 7.953125 -12.265625 C 8.429688 -12.023438 8.890625 -11.695312 9.328125 -11.28125 L 9.21875 -13.21875 L 9.21875 -17.5625 L 12.453125 -17.5625 L 12.453125 0 L 9.8125 0 L 9.5625 -1.28125 L 9.484375 -1.28125 C 9.023438 -0.832031 8.503906 -0.453125 7.921875 -0.140625 C 7.335938 0.160156 6.722656 0.3125 6.078125 0.3125 Z M 6.90625 -2.359375 C 7.34375 -2.359375 7.75 -2.457031 8.125 -2.65625 C 8.5 -2.851562 8.863281 -3.175781 9.21875 -3.625 L 9.21875 -9.046875 C 8.851562 -9.378906 8.472656 -9.613281 8.078125 -9.75 C 7.691406 -9.894531 7.300781 -9.96875 6.90625 -9.96875 C 6.445312 -9.96875 6.023438 -9.820312 5.640625 -9.53125 C 5.253906 -9.25 4.941406 -8.828125 4.703125 -8.265625 C 4.472656 -7.710938 4.359375 -7.023438 4.359375 -6.203125 C 4.359375 -5.347656 4.457031 -4.632812 4.65625 -4.0625 C 4.851562 -3.5 5.140625 -3.070312 5.515625 -2.78125 C 5.898438 -2.5 6.363281 -2.359375 6.90625 -2.359375 Z M 6.90625 -2.359375 "/></g></g></g></svg>